<svg width="107" height="107" viewBox="0 0 107 107" fill="none" xmlns="http://www.w3.org/2000/svg">
<path d="M67.2408 0H53.1788C47.8966 0 42.8999 2.07837 39.1168 5.80509C35.4049 9.53182 33.3349 14.6202 33.3349 19.9236V41.209H19.8439C14.5617 41.209 9.56505 43.2873 5.78186 47.0141C2.07005 50.7408 0 55.8292 0 61.1326V75.2512C51.537 79.2646 70.9526 47.0857 67.2408 0ZM44.1848 107H55.9626C60.3883 107 64.5997 105.208 67.7405 102.127C70.8813 98.9732 72.5944 94.7448 72.5944 90.3014V78.9779H90.3683C94.7939 78.9779 99.0053 77.1862 102.146 74.1045C105.287 70.9511 107 66.7227 107 62.2793V50.4541C67.6691 47.3007 40.8299 63.641 44.1848 107Z" fill="#6E1EEF"/>
</svg>
